<svg width="88" height="93" viewBox="0 0 88 93" fill="none" xmlns="http://www.w3.org/2000/svg">
<g id="RIISE Logo">
<ellipse id="Ellipse 11" cx="57.4405" cy="9.52676" rx="9.49321" ry="8.99258" fill="#DFC900"/>
<ellipse id="Ellipse 12" cx="78.5079" cy="9.52676" rx="9.49321" ry="8.99258" fill="#DFC900"/>
<g id="Group">
<path id="Vector" d="M43.6926 14.6926C43.6926 18.6019 42.001 22.1433 39.2713 24.7038C36.5416 27.2643 32.7662 28.8511 28.5986 28.8511H26.807L22.1396 24.473V0.53418H28.5986C36.9338 0.53418 43.6926 6.87411 43.6926 14.6926Z" fill="#EED924"/>
<path id="Vector_2" d="M22.136 0.53418V24.473L17.4686 28.8511H0.583008V0.53418H22.136Z" fill="#5BA500"/>
<path id="Vector_3" d="M17.4686 28.8506L0.736793 44.5453H0.583008V28.8506H17.4686Z" fill="black"/>
<path id="Vector_4" d="M26.807 28.8507H22.1396V24.4727L26.807 28.8507Z" fill="#061600"/>
<path id="Vector_5" d="M22.1361 24.4727V28.8507H17.4688L22.1361 24.4727Z" fill="#5BA500"/>
<path id="Vector_6" d="M22.1394 28.8506V44.5453H0.740234L17.472 28.8506H22.1394Z" fill="#036132"/>
<path id="Vector_7" d="M43.5312 44.5453H22.1396V28.8506H26.807L43.5312 44.5453Z" fill="#5BA500"/>
</g>
<g id="Group_2">
<path id="Vector_8" d="M43.689 48.1025V76.4195H43.5967C42.7816 69.3222 36.3765 63.7973 28.595 63.7973H0.675275C0.613761 63.2924 0.583008 62.7803 0.583008 62.261C0.583008 58.3517 2.27464 54.8103 5.00433 52.2498C7.73401 49.6893 11.5094 48.1025 15.677 48.1025H43.689Z" fill="#036132"/>
<path id="Vector_9" d="M43.5972 76.419H15.6775C7.896 76.419 1.49084 70.8941 0.675781 63.7969H28.5955C36.377 63.7969 42.7821 69.3218 43.5972 76.419Z" fill="#DFC900"/>
<path id="Vector_10" d="M43.689 77.9553C43.689 81.8646 41.9973 85.406 39.2676 87.9665C36.538 90.527 32.7625 92.1138 28.595 92.1138H0.583008V63.7969H0.675275C1.49034 70.8941 7.89549 76.419 15.677 76.419H43.5967C43.6582 76.9239 43.689 77.436 43.689 77.9553Z" fill="#5BA500"/>
</g>
<g id="Group_3">
<path id="Vector_11" d="M87.4722 75.7451H71.4521V92.0953H87.4722V75.7451Z" fill="#DFC900"/>
<path id="Vector_12" d="M71.4914 75.7812H48.4697V92.1251H71.4914V75.7812Z" fill="#5BA500"/>
<path id="Vector_13" d="M87.3954 48.1133H71.4863V64.45H87.3954V48.1133Z" fill="#DFC900"/>
<path id="Vector_14" d="M71.4914 48.1133H48.4697V64.45H71.4914V48.1133Z" fill="#5BA500"/>
<path id="Vector_15" d="M71.4914 64.4502H48.4697V75.7813H71.4914V64.4502Z" fill="#061600"/>
<path id="Vector_16" d="M79.6523 64.4502H71.4863V75.7813H79.6523V64.4502Z" fill="#036132"/>
</g>
<path id="Vector_17" d="M71.6311 19.9912H48.4717V44.5164H71.6311V19.9912Z" fill="#5BA500"/>
<path id="Vector_18" d="M87.4706 19.9912H66.2266V44.5164H87.4706V19.9912Z" fill="#036132"/>
<rect id="Rectangle 13" x="66.2266" y="19.9912" width="3.65676" height="24.5252" fill="black"/>
</g>
</svg>
