<svg width="34" height="36" viewBox="0 0 34 36" fill="none" xmlns="http://www.w3.org/2000/svg">
<g clip-path="url(#clip0_989_191)">
<path d="M10.6152 28.9336C10.6152 28.9336 16.593 31.2152 18.1583 31.5677C19.4488 31.8582 21.1181 32.8389 21.0314 33.8978C21.0029 34.2553 20.7776 34.5147 20.7169 34.5793C19.6964 35.6742 16.9868 34.5644 16.2177 34.2503C15.1824 33.8258 14.4667 33.3391 14.2524 33.189C13.388 32.5857 11.8375 31.3095 10.6152 28.9336Z" fill="#DFC900"/>
<path d="M8.5696 2.52845C9.45015 1.96736 10.7331 1.26972 12.3827 0.755796C13.0601 0.544766 15.07 -0.0312224 17.8626 0.0593963C18.519 0.0804993 24.5178 0.321322 25.2708 2.60417C25.3265 2.77424 25.5655 3.49795 25.22 4.13601C24.95 4.63503 24.4484 4.85103 24.1884 4.96399C23.589 5.22219 23.0503 5.18992 22.6528 5.16136C22.3976 5.14274 22.0621 5.09558 21.106 4.77655C20.301 4.50841 19.7128 4.26635 19.4403 4.15463C19.4403 4.15463 18.145 3.62581 16.9883 3.20871C15.0725 2.51852 13.3622 2.44901 11.9777 2.39314C11.0997 2.35714 9.93559 2.36459 8.56836 2.52845H8.5696Z" fill="#5BA500"/>
<path d="M2.5332 9.0849C2.5332 9.0849 3.77037 4.62969 8.34258 4.60361C12.9135 4.57879 21.274 9.23636 21.274 9.23636C23.9192 10.7794 26.6858 11.1493 28.3627 9.96257C28.5695 9.81605 29.2506 9.33319 29.6122 8.4245C30.3292 6.61833 29.1045 4.81961 28.9521 4.60361C30.3961 5.58925 31.2147 6.69157 31.6481 7.38795C31.9862 7.93168 34.1472 11.405 32.6054 14.6872C31.9639 16.0526 30.9608 16.7924 30.7527 16.9402C27.6134 19.1834 23.2195 17.1674 22.9966 17.0581C22.9743 17.047 22.3836 16.754 22.3836 16.754C19.0672 14.8361 16.6374 13.0722 14.9915 11.7749C14.386 11.2983 13.2491 10.3809 11.5426 9.42131C9.76674 8.42326 8.05652 7.76409 6.18774 7.66355C4.91714 7.59527 4.12332 7.81502 3.49173 8.21223C3.03228 8.50026 2.72268 8.84038 2.5332 9.08366V9.0849Z" fill="#5BA500"/>
<path d="M16.9534 34.6034C15.5367 34.5823 13.6283 34.3787 11.523 33.6165C6.98551 31.973 4.38857 28.7641 3.33964 27.2881C3.33964 27.2881 0.712979 23.6261 2.64985 22.1575C4.58671 20.689 6.96073 23.204 6.96073 23.204C6.96073 23.204 10.4803 27.7772 11.2369 29.0608C11.2369 29.0608 13.6444 32.8754 16.9534 34.6046V34.6034Z" fill="#5BA500"/>
<path d="M14.4505 20.0273C14.4505 20.0273 20.4493 21.7528 25.6345 21.1458C25.6345 21.1458 29.0017 20.7312 29.5739 20.6518C29.8872 20.6083 31.0129 20.725 31.8179 21.4363C32.7331 22.2444 33.0042 23.6943 32.6377 25.1356C32.2885 25.5787 31.725 26.1858 30.8903 26.6897C29.0847 27.7796 27.2382 27.6431 26.1125 27.5438C23.2023 27.2881 21.1514 25.9449 19.4933 24.8302C18.1768 23.9463 16.2622 22.4369 14.4492 20.0273H14.4505Z" fill="#DFC900"/>
<path d="M15.6819 12.3127C14.1166 10.9907 12.6936 10.0796 11.6262 9.47128C10.4014 8.77368 9.53815 8.41489 8.77158 8.16537C8.59325 8.10703 7.44031 7.7396 6.16103 7.66267C5.91212 7.64778 5.63471 7.64277 5.31025 7.66885C4.92015 7.69987 4.44708 7.74207 3.90219 7.97918C3.42664 8.18527 3.12446 8.44097 3.01796 8.53657C2.66626 8.85061 2.5226 9.12869 2.48173 9.21434C2.45573 9.26773 2.43715 9.31364 2.42353 9.34466C2.36037 9.52096 2.28978 9.79904 2.3195 10.1329C2.38885 10.8815 2.91641 11.3631 3.1641 11.5692C4.52634 12.7088 6.64897 12.0757 6.64897 12.0757C7.47248 11.9267 8.38026 11.8113 9.35981 11.7566C11.849 11.6188 14.0039 11.9242 15.6819 12.3153V12.3127Z" fill="#DFC900"/>
<path d="M0.967425 22.148C0.967425 22.148 -1.76078 13.8197 2.9625 11.5915C2.9625 11.5915 3.51235 11.3507 4.4523 11.4872C6.14024 11.7318 8.29135 13.6422 8.29135 13.6422C9.81086 14.958 11.0344 16.2106 12.2989 17.5835C13.3985 18.7777 13.8629 19.3412 14.4165 19.9594C16.7187 22.529 19.5435 25.6821 23.712 26.9918C24.4699 27.23 26.3597 27.7489 28.5517 27.4188C29.8346 27.2251 30.5826 26.8353 30.9344 26.6305C31.7678 26.1426 32.3165 25.548 32.6396 25.1372C32.3264 26.057 31.7009 27.528 30.3486 28.8327C28.9095 30.2205 26.6272 31.4917 23.068 31.5922C23.068 31.5922 17.2586 31.8206 12.9155 26.5796C8.57123 21.3398 6.62694 18.6561 4.05106 18.5034C1.47517 18.3519 0.843584 20.7812 0.9699 22.1492L0.967425 22.148Z" fill="#5BA500"/>
</g>
<defs>
<clipPath id="clip0_989_191">
<rect width="33" height="35" fill="white" transform="translate(0.183594 0.0498047)"/>
</clipPath>
</defs>
</svg>
