<svg width="124" height="34" viewBox="0 0 124 34" fill="none" xmlns="http://www.w3.org/2000/svg">
<g id="Group 18">
<g id="Group">
<path id="Vector" d="M30.573 11.072C30.573 14.025 29.3732 16.7001 27.4371 18.6343C25.501 20.5684 22.8232 21.7671 19.8673 21.7671H18.5966L15.2861 18.4599V0.376953H19.8673C25.7792 0.376953 30.573 5.16603 30.573 11.072Z" fill="#EED924"/>
<path id="Vector_2" d="M15.2869 0.376953V18.4599L11.9765 21.7671H0V0.376953H15.2869Z" fill="#5BA500"/>
<path id="Vector_3" d="M11.9765 21.7666L0.109075 33.6222H0V21.7666H11.9765Z" fill="black"/>
<path id="Vector_4" d="M18.5966 21.7671H15.2861V18.46L18.5966 21.7671Z" fill="#061600"/>
<path id="Vector_5" d="M15.286 18.46V21.7671H11.9756L15.286 18.46Z" fill="#5BA500"/>
<path id="Vector_6" d="M15.2862 21.7666V33.6222H0.108398L11.9758 21.7666H15.2862Z" fill="#036132"/>
<path id="Vector_7" d="M30.4585 33.6222H15.2861V21.7666H18.5966L30.4585 33.6222Z" fill="#5BA500"/>
</g>
<g id="Group_2">
<path id="Vector_8" d="M94.0562 0.376953V21.7671H93.9908C93.4127 16.4059 88.8697 12.2325 83.3505 12.2325H63.5479C63.5042 11.8511 63.4824 11.4643 63.4824 11.072C63.4824 8.11902 64.6823 5.44389 66.6183 3.50974C68.5544 1.57558 71.2322 0.376953 74.1882 0.376953H94.0562Z" fill="#036132"/>
<path id="Vector_9" d="M93.9898 21.767H74.1872C68.668 21.767 64.125 17.5936 63.5469 12.2324H83.3495C88.8687 12.2324 93.4117 16.4058 93.9898 21.767Z" fill="#DFC900"/>
<path id="Vector_10" d="M94.0562 22.9275C94.0562 25.8805 92.8564 28.5556 90.9203 30.4898C88.9842 32.4239 86.3064 33.6225 83.3505 33.6225H63.4824V12.2324H63.5479C64.126 17.5936 68.669 21.767 74.1882 21.767H93.9908C94.0344 22.1484 94.0562 22.5352 94.0562 22.9275Z" fill="#5BA500"/>
</g>
<g id="Group_3">
<path id="Vector_11" d="M123.999 21.25H112.637V33.6006H123.999V21.25Z" fill="#DFC900"/>
<path id="Vector_12" d="M112.663 21.2764H96.334V33.6223H112.663V21.2764Z" fill="#5BA500"/>
<path id="Vector_13" d="M123.946 0.376953H112.662V12.7174H123.946V0.376953Z" fill="#DFC900"/>
<path id="Vector_14" d="M112.663 0.376953H96.334V12.7174H112.663V0.376953Z" fill="#5BA500"/>
<path id="Vector_15" d="M112.663 12.7178H96.334V21.2771H112.663V12.7178Z" fill="#061600"/>
<path id="Vector_16" d="M118.454 12.7178H112.662V21.2771H118.454V12.7178Z" fill="#036132"/>
</g>
<g id="Group 17">
<ellipse id="Ellipse 11" cx="39.5848" cy="7.1698" rx="6.73326" ry="6.79285" fill="#DFC900"/>
<ellipse id="Ellipse 12" cx="54.5292" cy="7.1698" rx="6.73326" ry="6.79285" fill="#DFC900"/>
<path id="Vector_17" d="M49.648 15.0742H33.2217V33.6002H49.648V15.0742Z" fill="#5BA500"/>
<path id="Vector_18" d="M60.8871 15.0742H45.8193V33.6002H60.8871V15.0742Z" fill="#036132"/>
<rect id="Rectangle 13" x="45.8193" y="15.0742" width="2.59363" height="18.5259" fill="black"/>
</g>
</g>
</svg>
