<svg width="104" height="39" viewBox="0 0 104 39" fill="none" xmlns="http://www.w3.org/2000/svg">
<g clip-path="url(#clip0_915_6627)">
<mask id="mask0_915_6627" style="mask-type:luminance" maskUnits="userSpaceOnUse" x="0" y="0" width="104" height="39">
<path d="M104 0H0V39H104V0Z" fill="white"/>
</mask>
<g mask="url(#mask0_915_6627)">
<path d="M11.7754 32.1836C11.7754 32.1836 18.5237 34.7259 20.2908 35.1188C21.7476 35.4425 23.6321 36.5352 23.5342 37.7151C23.5021 38.1134 23.2477 38.4026 23.1791 38.4744C22.0272 39.6945 18.9682 38.4579 18.1001 38.1079C16.9313 37.6349 16.1233 37.0926 15.8814 36.9253C14.9056 36.2531 13.1553 34.8311 11.7754 32.1836Z" fill="#DFC900"/>
<path d="M9.46624 2.76094C10.4603 2.13573 11.9086 1.35836 13.7708 0.7857C14.5355 0.550552 16.8045 -0.0912641 19.9571 0.00971126C20.6981 0.033226 27.4702 0.301571 28.3202 2.84532C28.3831 3.03482 28.6529 3.84124 28.2628 4.55222C27.9581 5.10828 27.3919 5.34896 27.0983 5.47483C26.4217 5.76254 25.8135 5.72658 25.3647 5.69476C25.0767 5.67401 24.6979 5.62145 23.6186 5.26596C22.7099 4.96719 22.0458 4.69746 21.7382 4.57297C21.7382 4.57297 20.2759 3.98372 18.9701 3.51895C16.8073 2.74988 14.8766 2.67242 13.3137 2.61017C12.3224 2.57006 11.0083 2.57836 9.46484 2.76094H9.46624Z" fill="#5BA500"/>
<path d="M2.65234 10.0668C2.65234 10.0668 4.04899 5.1024 9.21056 5.07335C14.3707 5.04569 23.8088 10.2356 23.8088 10.2356C26.795 11.9549 29.9183 12.3671 31.8112 11.0447C32.0447 10.8815 32.8136 10.3435 33.2218 9.33092C34.0313 7.31832 32.6487 5.31404 32.4767 5.07335C34.1068 6.17163 35.0309 7.39993 35.5202 8.17591C35.9019 8.78179 38.3414 12.652 36.6009 16.3092C35.8767 17.8309 34.7443 18.6552 34.5094 18.8199C30.9654 21.3193 26.0052 19.073 25.7535 18.9512C25.7283 18.9388 25.0615 18.6123 25.0615 18.6123C21.3176 16.4753 18.5746 14.5097 16.7166 13.0642C16.033 12.5331 14.7496 11.5109 12.8231 10.4417C10.8183 9.32954 8.88762 8.59504 6.77795 8.48302C5.34357 8.40693 4.44742 8.65179 3.73443 9.0944C3.21575 9.41527 2.86624 9.79433 2.65234 10.0654V10.0668Z" fill="#5BA500"/>
<path d="M18.932 38.5022C17.3326 38.4787 15.1783 38.2518 12.8016 37.4026C7.67917 35.5712 4.74748 31.9955 3.56334 30.3508C3.56334 30.3508 0.598106 26.2704 2.78464 24.634C4.97117 22.9976 7.6512 25.8001 7.6512 25.8001C7.6512 25.8001 11.6244 30.8958 12.4786 32.3261C12.4786 32.3261 15.1964 36.5768 18.932 38.5036V38.5022Z" fill="#5BA500"/>
<path d="M60.4746 18.418H64.3527C64.8463 18.7665 65.3412 19.1137 65.8346 19.4623V37.5161H61.7915C61.3526 37.209 60.9136 36.902 60.4746 36.5935V18.418Z" fill="#DFC900"/>
<path d="M91.9492 18.3842V36.6068C92.4296 36.9208 92.9124 37.2334 93.3928 37.5474H103.998V34.3604C103.518 34.0464 103.035 33.7338 102.554 33.4198C100.83 33.3991 99.1043 33.3769 97.3805 33.3562C97.3875 32.121 97.3929 30.8844 97.3999 29.6491H103.673L103.716 26.5466C103.236 26.2326 102.753 25.92 102.272 25.606C100.649 25.5866 99.0274 25.5687 97.4038 25.5493C97.4123 24.5132 97.4209 23.4772 97.431 22.4412L104.003 22.455V19.3234C103.522 19.0094 103.04 18.6968 102.559 18.3828H91.9531L91.9492 18.3842Z" fill="#DFC900"/>
<path d="M45.9606 2.90234H43.3379V14.1009H45.9606V2.90234Z" fill="#808286"/>
<path d="M49.8089 2.90234H47.1289V14.1009H49.8089V2.90234Z" fill="#6F6F73"/>
<path d="M53.602 2.90234H50.9219V14.1009H53.602V2.90234Z" fill="#5A5B5F"/>
<path d="M54.7715 14.1009V2.90234H59.8184V5.38523L57.295 5.44195V14.1009H54.7715Z" fill="#414042"/>
<path d="M54.0063 29.5498C54.0063 29.5498 57.5699 28.6617 57.5321 24.5619C57.5181 23.0666 57.1198 22.0333 56.5339 21.3002C55.4728 19.9696 53.9294 19.6099 53.3115 19.4675C52.8724 19.3665 52.5299 19.3361 52.3804 19.3236C50.0107 19.1286 44.9358 19.1673 43.3924 19.1825C43.3742 25.0128 43.3561 30.8417 43.3379 36.672C43.8146 36.9639 44.2914 37.2544 44.768 37.5462H48.6168V30.6356C49.0488 30.6301 49.4809 30.6246 49.9143 30.619C51.1907 32.6371 52.4671 34.6553 53.7449 36.672C54.2216 36.9639 54.6983 37.2544 55.175 37.5462H59.4517L54.0063 29.5484V29.5498ZM50.5182 27.3823H48.7315V22.4732C48.7315 22.4732 51.0508 22.4926 51.4493 22.5866C51.8491 22.6807 53.5212 22.606 53.5408 25.0308C53.5603 27.457 50.5182 27.3809 50.5182 27.3809V27.3823Z" fill="#DFC900"/>
<path d="M52.5761 28.6422C52.5761 28.6422 56.1397 27.7541 56.1019 23.6543C56.088 22.159 55.6895 21.1258 55.1038 20.3926C54.0427 19.062 52.4992 18.7023 51.8813 18.5599C51.4996 18.4727 51.1753 18.434 50.9501 18.416H43.3952L43.3379 36.6386H47.1867V29.728L49.3536 29.7003L53.7449 36.64H58.0214L52.5761 28.6422ZM49.088 26.4746H47.3013V21.5656C47.3013 21.5656 49.6207 21.585 50.0191 21.679C50.4189 21.7731 52.091 21.6984 52.1105 24.1232C52.1302 26.5494 49.088 26.4733 49.088 26.4733V26.4746Z" fill="#5BA500"/>
<path d="M64.3527 18.418H60.4746V36.6405H64.3527V18.418Z" fill="#5BA500"/>
<path d="M69.2168 18.418H73.095C73.5884 18.7665 74.0834 19.1137 74.5769 19.4623V37.5161H70.5337C70.0947 37.209 69.6558 36.902 69.2168 36.5935V18.418Z" fill="#DFC900"/>
<path d="M73.095 18.418H69.2168V36.6405H73.095V18.418Z" fill="#5BA500"/>
<path d="M91.9492 18.418V36.6405H102.554V33.4536L95.94 33.383L95.954 28.7423H102.227C102.237 28.0106 102.247 27.2803 102.258 26.5486C102.262 26.2456 102.266 25.9427 102.271 25.6398C100.165 25.6204 98.0612 25.6024 95.9555 25.583L95.9835 21.5358L102.556 21.5496V18.418H91.9492Z" fill="#5BA500"/>
<path d="M16.1049 22.2598C16.1049 22.2598 22.877 24.1825 28.7306 23.5061C28.7306 23.5061 32.5319 23.044 33.1778 22.9556C33.5314 22.9072 34.8022 23.0372 35.711 23.8297C36.7442 24.7302 37.0503 26.3458 36.6365 27.9518C36.2423 28.4455 35.6062 29.1219 34.6639 29.6835C32.6255 30.898 30.541 30.7459 29.2702 30.6352C25.9848 30.3503 23.6697 28.8536 21.7977 27.6115C20.3116 26.6266 18.1502 24.9446 16.1035 22.2598H16.1049Z" fill="#DFC900"/>
<path d="M17.497 13.664C15.7299 12.1908 14.1236 11.1755 12.9185 10.4978C11.5358 9.72038 10.5613 9.32067 9.69596 9.04262C9.49464 8.97762 8.19308 8.56819 6.74891 8.48239C6.46791 8.4658 6.15475 8.46029 5.78846 8.48935C5.34808 8.52392 4.81403 8.57095 4.19889 8.83515C3.66205 9.06479 3.32092 9.34972 3.2007 9.45625C2.80366 9.80618 2.64148 10.116 2.59535 10.2115C2.56599 10.271 2.54501 10.3221 2.52964 10.3567C2.45834 10.5531 2.37865 10.8629 2.4122 11.235C2.49049 12.0691 3.08605 12.6058 3.36567 12.8354C4.9035 14.1052 7.29974 13.3998 7.29974 13.3998C8.22941 13.2338 9.25419 13.1052 10.36 13.0443C13.1701 12.8908 15.6027 13.2311 17.497 13.6667V13.664Z" fill="#DFC900"/>
<path d="M0.884868 24.6231C0.884868 24.6231 -2.19501 15.343 3.1371 12.8602C3.1371 12.8602 3.75784 12.5918 4.81895 12.7439C6.72447 13.0165 9.15285 15.1453 9.15285 15.1453C10.8682 16.6114 12.2495 18.0071 13.6769 19.537C14.9183 20.8676 15.4426 21.4956 16.0675 22.1845C18.6665 25.0477 21.8554 28.5611 26.5612 30.0204C27.4168 30.286 29.5502 30.8642 32.0248 30.4963C33.4731 30.2805 34.3175 29.8461 34.7146 29.6179C35.6555 29.0743 36.2748 28.4118 36.6397 27.9539C36.286 28.9789 35.58 30.6179 34.0533 32.0717C32.4288 33.6182 29.8522 35.0346 25.8342 35.1467C25.8342 35.1467 19.276 35.4012 14.3731 29.5612C9.46881 23.7226 7.2739 20.7321 4.36598 20.5619C1.45806 20.3932 0.745063 23.1002 0.887662 24.6245L0.884868 24.6231Z" fill="#5BA500"/>
<path d="M76.5645 35.8449C76.5645 35.8449 79.0737 37.9695 82.8371 37.8202C86.6013 37.6694 87.8547 36.5504 87.8547 36.5504C87.8547 36.5504 91.428 34.2846 89.2611 29.8459C89.2611 29.8459 88.3483 27.8582 85.3455 27.3657C82.3427 26.8747 81.392 24.2037 81.9624 23.1884C82.5329 22.1731 84.1294 21.458 87.8175 23.4139L89.7943 20.2546C89.7943 20.2546 88.6278 19.296 87.7895 18.9779C86.9506 18.6583 78.4645 15.9749 76.83 21.9698C76.83 21.9698 76.0919 25.7031 79.274 27.5483C82.4561 29.3936 83.3967 29.5706 83.3967 29.5706C83.3967 29.5706 84.9404 30.5333 84.8706 31.8529C84.8706 31.8529 84.831 32.5086 84.3374 33.0619C82.758 34.8324 76.8539 32.3177 76.5645 32.1918V35.8435V35.8449Z" fill="#DFC900"/>
<path d="M76.5907 32.2112V35.9348C76.5907 35.9348 85.942 39.3956 88.5653 33.0951C88.5653 33.0951 89.1241 30.8791 87.8505 28.8624C87.1155 27.6991 86.0957 27.1389 85.1426 26.6257C84.2702 26.1554 82.3323 25.284 81.3218 24.519C81.2364 24.454 81.0361 24.2991 80.8662 24.0335C80.825 23.9699 80.4378 23.3433 80.6155 22.6005C80.6326 22.53 80.6504 22.4733 80.6644 22.4345C80.8421 22.1496 81.0423 21.9352 81.2449 21.7734C83.2341 20.1799 87.0092 22.2243 87.2133 22.3377C87.6339 21.3335 88.0561 20.3293 88.4768 19.3251C88.3286 19.2324 88.133 19.1231 87.8924 19.0207C87.4818 18.8589 86.9471 18.6735 86.3099 18.5159C86.1236 18.4702 85.5927 18.343 84.8422 18.2434C84.2547 18.1659 83.3769 18.0483 82.3618 18.1119C81.3342 18.1756 80.1211 18.2503 78.9352 19.0332C78.6698 19.2088 77.785 19.8092 77.2254 20.9186C76.1168 23.1165 77.2478 25.414 77.4058 25.7238C78.0419 26.6991 78.7186 27.3228 79.2006 27.7005C80.1071 28.4101 81.092 28.8582 81.5212 29.0519C82.184 29.3521 82.5535 29.4544 83.2884 29.8694C84.0157 30.2802 84.3851 30.4946 84.6001 30.8958C84.916 31.485 84.8966 32.3177 84.4619 32.9028C83.9598 33.5792 83.1084 33.6442 82.4945 33.6912C82.1002 33.7217 81.8068 33.6801 81.2348 33.5944C80.6574 33.5086 80.0287 33.3772 79.1222 33.1089C78.4586 32.9111 77.5903 32.6248 76.5879 32.2112H76.5907Z" fill="#5BA500"/>
<path d="M61.0371 3.01074C61.0343 3.82961 61.0301 4.64848 61.0273 5.46735C61.3559 5.57663 62.02 5.85188 62.519 6.51169C63.1007 7.28076 63.1132 8.11344 63.1202 8.55468C63.123 8.7262 63.123 9.44824 62.8798 10.0098C62.3667 11.1939 60.6653 11.9062 58.6716 11.8274C58.6605 12.5425 58.6479 13.2563 58.6367 13.9714C58.9974 13.9949 59.5091 14.0074 60.1186 13.9507C60.7701 13.8898 62.0675 13.7681 63.1356 13.1415C64.6972 12.2272 65.6269 10.3224 65.6353 8.49105C65.6381 8.00837 65.5807 6.24611 64.1981 4.73701C62.9944 3.42295 61.5153 3.0965 61.0357 3.01074H61.0371Z" fill="#429A97"/>
</g>
</g>
<defs>
<clipPath id="clip0_915_6627">
<rect width="104" height="39" fill="white"/>
</clipPath>
</defs>
</svg>
